<svg width="53" height="16" viewBox="0 0 53 16" fill="none" xmlns="http://www.w3.org/2000/svg">
<path d="M2.22 3.92L1.88 0.999999H0.4L1.9 15H4.26L5.76 0.999999H4.28L3.94 3.9L3.08 13.26L2.22 3.92ZM6.91234 15H8.43234V10.82L11.1523 15H12.9123L10.0123 10.56C11.7323 9.74 12.9323 8.04 12.9323 6.04C12.9323 3.26 10.6323 0.999999 7.83234 0.999999H6.91234V15ZM11.4123 6.04C11.4123 7.82 10.1323 9.34 8.43234 9.64V2.48C10.1323 2.78 11.4123 4.26 11.4123 6.04ZM21.5984 13.84C19.6384 13.84 17.9784 13.12 16.9184 11.96L27.6984 4.52C26.4384 2.26 24.0184 0.719999 21.2384 0.719999C17.1784 0.719999 13.8784 3.98 13.8784 8C13.8784 12.02 16.9984 15.28 21.5984 15.28C24.0784 15.28 26.1584 14.26 27.5984 12.18L26.3984 11.3C25.2384 13.06 23.5784 13.84 21.5984 13.84ZM15.3984 8C15.3984 4.78 17.9784 2.16 21.2384 2.16C22.9984 2.16 24.5784 2.94 25.6384 4.16L16.0784 10.74C15.6384 9.92 15.3984 9 15.3984 8ZM29.9678 0.999999L28.3678 15H29.8478L30.0078 13.52H32.2478L32.4278 15H33.9078L32.3078 0.999999H29.9678ZM32.0878 12.08H30.1878L31.1278 2.68L32.0878 12.08ZM35.0373 15H39.6373V13.56H36.5573V0.999999H35.0373V15ZM38.1173 12.12H39.6373V0.999999H38.1173V12.12ZM40.7506 2.44H42.9906V15H44.5106V2.44H46.7506V0.999999H40.7506V2.44ZM49.1294 15H50.6494V12.84L52.4094 0.999999H50.9294L50.6294 2.8L49.8694 9.7L49.0494 2.8L48.7294 0.999999H47.2494L49.1294 12.84V15Z" fill="white"/>
</svg>
